<svg width="897" height="110" viewBox="0 0 897 110" fill="none" xmlns="http://www.w3.org/2000/svg">
<path d="M32.6806 1.46388L54.5371 76.9582H55.3697L77.2262 1.46388H109.907L74.7283 108.536H35.1785L0 1.46388H32.6806Z" fill="#F2F2F2"/>
<path d="M149.105 1.46388V108.536H120.172V1.46388H149.105Z" fill="#F2F2F2"/>
<path d="M159.904 24.8859V1.46388H252.533V24.8859H220.477V108.536H191.96V24.8859H159.904Z" fill="#F2F2F2"/>
<path d="M277.655 108.536H246.432L281.61 1.46388H321.16L356.339 108.536H325.115L301.801 30.9506H300.969L277.655 108.536ZM271.827 66.2928H330.527V88.0418H271.827V66.2928Z" fill="#F2F2F2"/>
<path d="M366.603 1.46388H402.614L427.385 62.1103H428.634L453.405 1.46388H489.416V108.536H461.107V46.635H460.274L436.544 107.7H419.475L395.745 46.2167H394.913V108.536H366.603V1.46388Z" fill="#F2F2F2"/>
<path d="M532.062 1.46388V108.536H503.128V1.46388H532.062Z" fill="#F2F2F2"/>
<path d="M637.988 1.46388V108.536H613.842L575.333 52.2814H574.708V108.536H545.774V1.46388H570.337L608.221 57.5095H609.054V1.46388H637.988Z" fill="#F2F2F2"/>
<path d="M679.359 108.536H648.135L683.314 1.46388H722.864L758.042 108.536H726.819L703.505 30.9506H702.673L679.359 108.536ZM673.531 66.2928H732.231V88.0418H673.531V66.2928Z" fill="#F2F2F2"/>
<path d="M897 41.616H867.65C867.442 39.1762 866.887 36.9629 865.985 34.9762C865.117 32.9895 863.903 31.2817 862.342 29.8527C860.815 28.3888 858.959 27.2735 856.774 26.5067C854.588 25.705 852.107 25.3042 849.332 25.3042C844.475 25.3042 840.364 26.4892 836.999 28.8593C833.668 31.2294 831.136 34.6277 829.401 39.0542C827.701 43.4807 826.851 48.7959 826.851 55C826.851 61.5526 827.718 67.0421 829.453 71.4686C831.222 75.8603 833.772 79.1714 837.103 81.4021C840.433 83.5979 844.44 84.6958 849.124 84.6958C851.795 84.6958 854.189 84.3647 856.305 83.7025C858.422 83.0054 860.26 82.012 861.821 80.7224C863.383 79.4328 864.649 77.8818 865.62 76.0694C866.626 74.2221 867.303 72.1483 867.65 69.8479L897 70.057C896.653 74.5881 895.387 79.2063 893.201 83.9116C891.016 88.5821 887.91 92.904 883.886 96.8774C879.896 100.816 874.953 103.988 869.055 106.393C863.157 108.798 856.305 110 848.499 110C838.716 110 829.939 107.891 822.168 103.674C814.431 99.4566 808.308 93.2525 803.798 85.0618C799.322 76.871 797.085 66.8504 797.085 55C797.085 43.0798 799.374 33.0418 803.954 24.8859C808.533 16.6952 814.709 10.5086 822.48 6.32605C830.251 2.10868 838.924 0 848.499 0C855.23 0 861.422 0.923636 867.077 2.77091C872.732 4.61819 877.693 7.31939 881.961 10.8745C886.228 14.3948 889.662 18.7342 892.264 23.8926C894.866 29.051 896.445 34.9588 897 41.616Z" fill="#F2F2F2"/>
</svg>
